<?xml version="1.0" encoding="UTF-8"?>
<svg width="408px" height="146px" viewBox="0 0 408 146" version="1.1" xmlns="http://www.w3.org/2000/svg" xmlns:xlink="http://www.w3.org/1999/xlink">
    <title>Artboard Copy</title>
    <g id="Artboard-Copy" stroke="none" stroke-width="1" fill="none" fill-rule="evenodd">
        <text id="Cohora" fill-rule="nonzero" font-family="Geist-Regular, Geist" font-size="82" font-weight="normal" letter-spacing="-5.10222222" fill="#000000">
            <tspan x="133" y="102">Cohora</tspan>
        </text>
        <path d="M112,86 C115.313708,86 118,88.6862915 118,92 L118,110 C118,113.313708 115.313708,116 112,116 L94,116 C90.6862915,116 88,113.313708 88,110 L88,92 C88,88.6862915 90.6862915,86 94,86 L112,86 Z M112,29 C115.313708,29 118,31.6862915 118,35 L118,53 C118,56.3137085 115.313708,59 112,59 L94,59 C90.6862915,59 88,61.6862915 88,65 L88,83.7041498 C88,85.182453 87.4542506,86.6087205 86.4674166,87.7094199 L63.7883785,113.00527 C62.6502752,114.274693 61.0258707,115 59.3209619,115 L38,115 C34.6862915,115 32,112.313708 32,109 L32,92 C32,88.6862915 34.6862915,86 38,86 L56,86 C59.3137085,86 62,83.3137085 62,80 L62,61.2382 C62,59.7946504 62.5204408,58.3994914 63.4658655,57.3086167 L86.2056388,31.0704168 C87.3452834,29.7554422 88.9996733,29 90.7397733,29 L112,29 Z M56,29 C59.3137085,29 62,31.6862915 62,35 L62,53 C62,56.3137085 59.3137085,59 56,59 L38,59 C34.6862915,59 32,56.3137085 32,53 L32,35 C32,31.6862915 34.6862915,29 38,29 L56,29 Z" id="Combined-Shape" fill="#00CCCC"></path>
    </g>
</svg>