<?xml version="1.0" encoding="UTF-8"?>
<svg width="86px" height="87px" viewBox="0 0 86 87" version="1.1" xmlns="http://www.w3.org/2000/svg" xmlns:xlink="http://www.w3.org/1999/xlink">
    <title>Combined Shape</title>
    <g id="Page-1" stroke="none" stroke-width="1" fill="none" fill-rule="evenodd">
        <g id="Artboard-Copy-4" transform="translate(-30, -30)" fill="#00CCCC">
            <path d="M110,87 C113.313708,87 116,89.6862915 116,93 L116,111 C116,114.313708 113.313708,117 110,117 L92,117 C88.6862915,117 86,114.313708 86,111 L86,93 C86,89.6862915 88.6862915,87 92,87 L110,87 Z M110,30 C113.313708,30 116,32.6862915 116,36 L116,54 C116,57.3137085 113.313708,60 110,60 L92,60 C88.6862915,60 86,62.6862915 86,66 L86,84.7041498 C86,86.182453 85.4542506,87.6087205 84.4674166,88.7094199 L61.7883785,114.00527 C60.6502752,115.274693 59.0258707,116 57.3209619,116 L36,116 C32.6862915,116 30,113.313708 30,110 L30,93 C30,89.6862915 32.6862915,87 36,87 L54,87 C57.3137085,87 60,84.3137085 60,81 L60,62.2382 C60,60.7946504 60.5204408,59.3994914 61.4658655,58.3086167 L84.2056388,32.0704168 C85.3452834,30.7554422 86.9996733,30 88.7397733,30 L110,30 Z M54,30 C57.3137085,30 60,32.6862915 60,36 L60,54 C60,57.3137085 57.3137085,60 54,60 L36,60 C32.6862915,60 30,57.3137085 30,54 L30,36 C30,32.6862915 32.6862915,30 36,30 L54,30 Z" id="Combined-Shape"></path>
        </g>
    </g>
</svg>